<svg width="16" height="17" viewBox="0 0 16 17" fill="none" xmlns="http://www.w3.org/2000/svg">
<path d="M9.8874 8.06899L4.8656 3.04719C4.73313 2.91472 4.66859 2.75703 4.672 2.57413C4.67543 2.39122 4.74338 2.23353 4.87585 2.10106C5.00833 1.96858 5.16602 1.90234 5.34892 1.90234C5.53182 1.90234 5.68951 1.96858 5.82199 2.10106L10.9258 7.21516C11.0463 7.33567 11.1357 7.47071 11.1938 7.62028C11.2519 7.76986 11.281 7.91943 11.281 8.06899C11.281 8.21856 11.2519 8.36813 11.1938 8.51771C11.1357 8.66728 11.0463 8.80232 10.9258 8.92283L5.81174 14.0369C5.67926 14.1694 5.52328 14.2339 5.34379 14.2305C5.16431 14.2271 5.00833 14.1592 4.87585 14.0267C4.74338 13.8942 4.67714 13.7365 4.67714 13.5536C4.67714 13.3707 4.74338 13.213 4.87585 13.0805L9.8874 8.06899Z" fill="#787486"/>
</svg>
