<svg width="14" height="14" viewBox="0 0 14 14" fill="none" xmlns="http://www.w3.org/2000/svg">
<path d="M3.09551 12.5412C2.80085 12.5412 2.55143 12.4391 2.34727 12.235C2.1431 12.0308 2.04102 11.7814 2.04102 11.4867V3.67909C2.04102 3.38442 2.1431 3.13501 2.34727 2.93084C2.55143 2.72668 2.80085 2.62459 3.09551 2.62459H3.90321V1.83933C3.90321 1.71145 3.94602 1.60469 4.03166 1.51906C4.11728 1.43344 4.22403 1.39062 4.35192 1.39062C4.4798 1.39062 4.58655 1.43344 4.67218 1.51906C4.75781 1.60469 4.80062 1.71145 4.80062 1.83933V2.62459H9.22048V1.82811C9.22048 1.70397 9.26236 1.60002 9.34611 1.51626C9.42987 1.4325 9.53382 1.39062 9.65796 1.39062C9.78211 1.39062 9.88606 1.4325 9.96981 1.51626C10.0536 1.60002 10.0955 1.70397 10.0955 1.82811V2.62459H10.9032C11.1978 2.62459 11.4472 2.72668 11.6514 2.93084C11.8556 3.13501 11.9577 3.38442 11.9577 3.67909V11.4867C11.9577 11.7814 11.8556 12.0308 11.6514 12.235C11.4472 12.4391 11.1978 12.5412 10.9032 12.5412H3.09551ZM3.09551 11.6662H10.9032C10.948 11.6662 10.9892 11.6476 11.0266 11.6102C11.064 11.5728 11.0827 11.5316 11.0827 11.4867V6.01242H2.916V11.4867C2.916 11.5316 2.9347 11.5728 2.97209 11.6102C3.00949 11.6476 3.05063 11.6662 3.09551 11.6662ZM2.916 5.13743H11.0827V3.67909C11.0827 3.63421 11.064 3.59307 11.0266 3.55567C10.9892 3.51828 10.948 3.49958 10.9032 3.49958H3.09551C3.05063 3.49958 3.00949 3.51828 2.97209 3.55567C2.9347 3.59307 2.916 3.63421 2.916 3.67909V5.13743Z" fill="#787486"/>
</svg>
