<svg width="20" height="20" viewBox="0 0 20 20" fill="none" xmlns="http://www.w3.org/2000/svg">
<rect width="20" height="20" rx="4" fill="#F1EFFD"/>
<path d="M9.31099 10.6878H6.32417C6.13071 10.6878 5.96744 10.6213 5.83437 10.4882C5.7013 10.3552 5.63477 10.1919 5.63477 9.99843C5.63477 9.80498 5.7013 9.64172 5.83437 9.50865C5.96744 9.37558 6.13071 9.30904 6.32417 9.30904H9.31099V6.32222C9.31099 6.12876 9.37753 5.96549 9.5106 5.83242C9.64367 5.69935 9.80693 5.63281 10.0004 5.63281C10.1938 5.63281 10.3571 5.69935 10.4902 5.83242C10.6232 5.96549 10.6898 6.12876 10.6898 6.32222V9.30904H13.6766C13.8701 9.30904 14.0333 9.37558 14.1664 9.50865C14.2995 9.64172 14.366 9.80498 14.366 9.99843C14.366 10.1919 14.2995 10.3552 14.1664 10.4882C14.0333 10.6213 13.8701 10.6878 13.6766 10.6878H10.6898V13.6746C10.6898 13.8681 10.6232 14.0314 10.4902 14.1644C10.3571 14.2975 10.1938 14.3641 10.0004 14.3641C9.80693 14.3641 9.64367 14.2975 9.5106 14.1644C9.37753 14.0314 9.31099 13.8681 9.31099 13.6746V10.6878Z" fill="#5534DA"/>
</svg>
