<svg width="16" height="16" xmlns="http://www.w3.org/2000/svg">
 <g>
  <title>Layer 1</title>
  <g id="svg_1" transform="rotate(180 399 300)">
   <path fill="#D9D9D9" d="m397.08901,299.9975l5.0218,5.02178c0.1325,0.1325 0.197,0.2902 0.1936,0.4731c-0.0034,0.1829 -0.0714,0.3406 -0.2039,0.4731c-0.1324,0.1324 -0.2901,0.1987 -0.473,0.1987c-0.1829,0 -0.3406,-0.0663 -0.4731,-0.1987l-5.10384,-5.11414c-0.12051,-0.12051 -0.20982,-0.25555 -0.26795,-0.40512c-0.05811,-0.14958 -0.08716,-0.29915 -0.08716,-0.44872c0,-0.14956 0.02905,-0.29913 0.08716,-0.44871c0.05813,-0.14957 0.14744,-0.28461 0.26795,-0.40512l5.11414,-5.1141c0.1324,-0.13248 0.2884,-0.19701 0.4679,-0.1936c0.1795,0.00342 0.3355,0.07137 0.4679,0.20385c0.1325,0.13248 0.1988,0.29017 0.1988,0.47307c0,0.1829 -0.0663,0.34059 -0.1988,0.47307l-5.0115,5.01154z" id="svg_2"/>
  </g>
  <g transform="rotate(180 8 8)">
   <path fill="#D9D9D9" d="m6.08901,7.99749l5.0218,5.02178c0.1325,0.1325 0.197,0.2902 0.1936,0.4731c-0.0034,0.1829 -0.0714,0.3406 -0.2039,0.4731c-0.1324,0.1324 -0.2901,0.1987 -0.473,0.1987c-0.1829,0 -0.3406,-0.0663 -0.4731,-0.1987l-5.10384,-5.11414c-0.12051,-0.12051 -0.20982,-0.25555 -0.26795,-0.40512c-0.05811,-0.14958 -0.08716,-0.29915 -0.08716,-0.44872c0,-0.14956 0.02905,-0.29913 0.08716,-0.44871c0.05813,-0.14957 0.14744,-0.28461 0.26795,-0.40512l5.11414,-5.1141c0.1324,-0.13248 0.2884,-0.19701 0.4679,-0.1936c0.1795,0.00342 0.3355,0.07137 0.4679,0.20385c0.1325,0.13248 0.1988,0.29017 0.1988,0.47307c0,0.1829 -0.0663,0.34059 -0.1988,0.47307l-5.0115,5.01154z"/>
  </g>
 </g>

</svg>