<svg width="41" height="28" viewBox="0 0 41 28" fill="none" xmlns="http://www.w3.org/2000/svg">
<g clip-path="url(#clip0_35698_7086)">
<path d="M32.3028 2.08416C32.2919 2.0624 32.2664 2.0479 32.241 2.05515C32.0192 2.14942 31.7975 2.2292 31.5685 2.31259C30.9396 2.54466 30.2852 2.69695 29.6309 2.84924C28.8821 3.01604 28.1187 3.1357 27.3735 3.32062C26.73 3.47654 26.0902 3.66509 25.4723 3.91166C25.007 4.09296 24.5489 4.28877 24.12 4.53896C23.611 4.81816 23.2003 5.23515 22.8004 5.64852C22.4332 6.03287 22.0625 6.41723 21.7389 6.84147C21.5572 7.08079 21.4045 7.34186 21.2591 7.60293C21.4881 6.73994 21.808 5.8697 22.3933 5.18076C22.4369 5.12637 22.386 5.0611 22.3242 5.09011C22.1751 5.16263 22.037 5.25691 21.8952 5.34393C20.812 6.07639 19.845 6.98651 19.0125 7.99092C18.6054 8.48768 18.2128 8.99532 17.8893 9.5501C17.5148 10.1992 17.2313 10.899 17.0277 11.6205C17.0059 11.1927 17.0423 10.7648 17.1004 10.3406C17.1113 10.2644 17.1222 10.1919 17.1259 10.1158C17.1259 10.065 17.1404 9.99247 17.0895 9.96346C17.0532 9.94533 17.0168 9.96346 16.9914 9.99247C16.9587 10.0251 16.9332 10.0614 16.9041 10.0976C16.846 10.1738 16.7878 10.2535 16.7333 10.3333C16.5515 10.5908 16.3879 10.8627 16.2462 11.1455C15.8972 11.8599 15.5773 12.5814 15.2538 13.3066C14.9266 14.0318 14.6249 14.7715 14.3086 15.5004C14.0069 16.1893 13.6761 16.8674 13.3344 17.5382C13.149 17.8972 12.96 18.2561 12.7382 18.597C12.6437 18.742 12.5455 18.8834 12.4438 19.0212C12.4583 18.9922 12.4728 18.9668 12.4874 18.9378C12.7855 18.354 12.989 17.7304 13.1744 17.1031C13.3271 16.7006 13.4798 16.2981 13.6506 15.9065C13.8506 15.4605 14.0287 15.0072 14.1996 14.5504C14.5413 13.6874 14.9557 12.8606 15.4282 12.0593C15.7336 11.5408 16.0608 11.0331 16.3589 10.5074C16.6388 10.0142 16.8605 9.49208 17.115 8.98807C17.304 8.61096 17.4967 8.23386 17.6602 7.84588C17.7075 7.7371 17.7548 7.62469 17.7984 7.51228C17.8166 7.45789 17.8384 7.39988 17.8493 7.34186C17.8493 7.3201 17.8529 7.29472 17.8384 7.27297C17.8057 7.2222 17.7402 7.24033 17.7002 7.27297C17.5839 7.35999 17.4749 7.45064 17.3622 7.54492C16.9986 7.85313 16.6206 8.14321 16.2316 8.41878C17.0641 7.41076 17.9511 6.38097 18.3509 5.11187C18.38 5.00309 18.46 4.73114 18.38 4.64049C18.3255 4.59335 18.2637 4.65862 18.231 4.6985C17.8929 5.11912 17.5367 5.52523 17.1404 5.89146C17.2931 5.65214 17.4385 5.40557 17.5694 5.15175C17.7875 4.71663 18.002 4.27789 18.1801 3.82464C18.3909 3.26986 18.5509 2.70058 18.7181 2.13492C18.8889 1.5185 19.0416 0.894827 19.227 0.282032C19.2452 0.224016 19.2634 0.166 19.2743 0.104358C19.2743 0.0862278 19.2815 0.0644718 19.2743 0.0463417C19.2634 0.0137077 19.2234 -0.00804832 19.1907 0.00282969C19.1616 0.0100817 19.1325 0.0282117 19.1071 0.0499677C18.7363 0.398064 18.4055 0.786047 18.0492 1.14502C17.7875 1.41335 17.5221 1.6853 17.2713 1.9645C16.766 2.53741 16.3152 3.16108 15.959 3.83552C15.6355 4.44831 15.3992 5.11187 15.2538 5.78993C15.0575 6.67468 14.992 7.58118 14.8684 8.4768C14.7267 8.08882 14.643 7.67908 14.6249 7.26209C14.6176 7.1243 14.6103 6.97926 14.6031 6.83059C14.6031 6.7617 14.6031 6.61303 14.4976 6.64567C14.4649 6.6638 14.4467 6.70006 14.4286 6.73632C14.3959 6.80159 14.3668 6.87048 14.3377 6.93937C14.2468 7.14968 14.145 7.35274 14.0505 7.55942C13.7815 8.13958 13.5489 8.7415 13.4289 9.3688C13.3235 9.88369 13.2689 10.4095 13.2689 10.9316C13.2689 11.6641 13.3816 12.3856 13.378 13.1217C13.1781 12.799 12.9745 12.4727 12.8909 12.0956C12.8473 11.9179 12.8146 11.7402 12.7855 11.5625C12.7782 11.5118 12.7673 11.4574 12.76 11.4066C12.7528 11.3704 12.7528 11.3232 12.7237 11.2978C12.6582 11.2471 12.6146 11.3341 12.6001 11.3885C12.4765 11.7801 12.4147 12.1935 12.4001 12.6068C12.382 13.0238 12.422 13.4408 12.4619 13.8578C12.4983 14.2349 12.5383 14.612 12.5637 14.9927C12.5455 15.1305 12.5383 15.2683 12.5274 15.4061C12.4837 16.0842 12.4074 16.7622 12.2765 17.4294C12.1893 17.9661 12.0766 18.4954 11.8876 19.0103C11.7785 19.3766 11.6368 19.7319 11.4586 20.0691C11.4295 20.1163 11.4041 20.167 11.3787 20.2142C11.026 20.8415 10.7025 21.4833 10.3463 22.1069C10.1318 22.4732 9.92458 22.8467 9.73192 23.2274C9.59014 23.474 9.45928 23.7241 9.34659 23.9816C9.24844 24.1992 9.15392 24.4203 9.06668 24.6415C9.03396 24.7358 8.93945 24.9244 8.99034 25.0186C9.06668 25.0875 9.12847 24.9969 9.17573 24.899C9.18664 24.8881 9.19754 24.8772 9.20481 24.8663C9.2339 24.8265 9.25934 24.7866 9.28115 24.7431C9.33932 24.6452 9.39748 24.5509 9.45201 24.4566C9.69193 24.0396 9.92458 23.619 10.1609 23.1984C10.5135 22.5457 10.8988 21.9111 11.2878 21.2766C11.3532 21.1714 11.415 21.0663 11.4804 20.9575C11.5604 20.8415 11.6404 20.7291 11.724 20.613C11.873 20.41 12.033 20.2142 12.2075 20.0329C12.422 19.7972 12.691 19.5687 12.9418 19.3693C13.3053 19.0756 13.6325 18.742 13.9524 18.4048C14.6976 17.5962 15.3992 16.7477 16.1262 15.921C16.6097 15.3408 17.1295 14.7824 17.6857 14.2748C18.0965 13.9303 18.5218 13.6003 18.9544 13.2849C19.6451 12.7917 20.3721 12.353 21.0591 11.8526C21.8698 11.2616 22.6623 10.6452 23.3893 9.95258C23.4111 9.9272 23.4366 9.89819 23.422 9.86193C23.4075 9.8148 23.3493 9.82205 23.3093 9.83292C23.1457 9.87644 22.9894 9.94171 22.8295 9.98159C22.6659 10.0179 22.4987 10.0505 22.3351 10.0795C21.888 10.1665 21.4299 10.2028 20.9755 10.2064C21.2336 10.1085 21.4954 10.0142 21.7571 9.9272C22.4078 9.7314 23.0658 9.5646 23.7019 9.32528C24.8325 8.9373 25.8212 8.24111 26.7264 7.47602C26.9481 7.2911 27.1735 7.10617 27.3771 6.89949C27.4134 6.85598 27.468 6.81609 27.4752 6.75445C27.4752 6.68193 27.388 6.68193 27.3335 6.69643C26.8245 6.80521 26.312 6.91037 25.7958 6.96476C25.4541 6.99739 25.0978 7.02277 24.7561 6.96113C25.1524 6.84147 25.5522 6.73632 25.9594 6.65292C26.3374 6.57677 26.7191 6.50425 27.0863 6.39185C27.657 6.22505 28.1696 5.89871 28.6058 5.49985C28.8675 5.24966 29.1111 4.98133 29.351 4.70938C29.6055 4.4193 29.8345 4.10747 30.1035 3.82826C30.4561 3.45841 30.8414 3.12119 31.2522 2.82023C31.5576 2.58092 31.8847 2.37786 32.2228 2.18568C32.2482 2.17118 32.2737 2.16393 32.2991 2.14942C32.3209 2.13492 32.3282 2.10954 32.3173 2.08416H32.3028ZM12.4365 19.3113C12.4365 19.3113 12.4365 19.3113 12.4292 19.3113H12.4329H12.4365ZM13.3053 15.4133C13.5852 14.4996 13.8542 13.5822 14.145 12.6721C14.4177 11.7402 14.6903 10.8083 14.9775 9.88369C15.2974 8.78864 15.5518 7.67545 15.8899 6.58403C16.1298 5.81531 16.3988 5.05385 16.7006 4.3069C16.9732 3.63246 17.2786 2.9689 17.693 2.36698C17.3549 3.16833 17.0059 3.96243 16.7115 4.77828C16.4279 5.4926 16.188 6.22143 15.9808 6.96113C15.4755 8.59646 15.1701 10.2862 14.683 11.9251C14.4758 12.6503 14.2432 13.3683 13.9924 14.0826C13.8142 14.5939 13.6034 15.1051 13.4289 15.6164C13.0399 16.7513 12.68 17.8972 12.2366 19.014C12.2293 19.0212 12.222 19.0285 12.2147 19.0357C12.2002 19.0321 12.1857 19.0357 12.1748 19.0393C12.2511 18.8 12.3238 18.5571 12.3856 18.3141C12.68 17.3424 13.0036 16.3815 13.3053 15.4133ZM24.2327 6.50063C23.811 6.79071 23.3893 7.08079 22.9894 7.39625C22.3242 7.92565 21.6771 8.47317 21.0337 9.02795C20.6593 9.36154 20.3212 9.73502 19.9686 10.094C19.6196 10.4566 19.267 10.8119 18.9362 11.1891C18.4963 11.6786 18.0456 12.1608 17.6239 12.6685C17.2531 13.1036 16.915 13.5677 16.5806 14.0318C16.3334 14.3618 16.0826 14.6918 15.8499 15.0326C15.5737 15.4278 15.2865 15.8122 15.0102 16.2074C14.7339 16.6063 14.4613 17.0052 14.1923 17.4076C14.0214 17.6615 13.8506 17.9189 13.6506 18.1546C13.4144 18.4338 13.1708 18.7275 12.9018 18.985C12.8 19.0756 12.7019 19.1663 12.6037 19.2605C12.6037 19.2605 12.6037 19.2605 12.6001 19.2605C12.5528 19.2497 12.5528 19.2061 12.5637 19.1699C12.7564 18.9559 12.9491 18.7456 13.1381 18.5281C13.3671 18.2634 13.5743 17.9806 13.767 17.6905C14.7921 16.1966 15.8281 14.7063 16.9296 13.2631C17.3404 12.7301 17.7657 12.2043 18.2237 11.7112C19.0125 10.8772 19.8268 10.0722 20.6411 9.26002C21.6917 8.21573 22.8113 7.23671 24.0291 6.39185C24.9997 5.73917 26.0321 5.18076 27.0972 4.6985C26.1011 5.23153 25.1705 5.88058 24.2327 6.50425V6.50063Z" fill="#5534DA"/>
<path d="M25.1268 24.8489C25.0977 24.9105 25.0578 24.9649 25.0141 25.0157C24.5561 25.4907 23.88 25.7373 23.2402 25.8642C22.5931 25.9983 21.9279 25.8751 21.2953 25.7336C21.9242 25.2151 22.6295 24.6096 22.7712 23.7647C22.9094 22.7531 21.9533 22.0968 21.0336 22.0533C17.9582 21.9517 15.181 23.6161 12.5745 25.0556C11.5858 25.5959 10.4843 26.2884 9.31014 26.0165C9.14656 25.9693 8.97934 25.8642 8.92844 25.6901C8.93208 25.643 8.91027 25.5886 8.86301 25.5669C8.49949 25.4943 8.75759 26.0056 8.92481 26.0962C10.368 26.9194 12.3746 25.3928 13.6505 24.7329C14.9665 24.0149 16.326 23.2897 17.7583 22.822C18.947 22.4702 20.3538 22.0786 21.5789 22.4086C22.2041 22.5899 22.6913 23.2426 22.4913 23.8953C22.2405 24.6495 21.5898 25.1825 20.9827 25.6539C20.0267 25.4254 19.0343 25.1752 18.0455 25.3167C17.5002 25.4146 16.8713 25.6067 16.5987 26.1289C16.1734 26.9846 17.2385 27.1514 17.8565 27.1333C19.0161 27.097 20.1212 26.622 21.0372 25.9222C22.0769 26.1942 23.1057 26.2957 24.1199 25.8678C24.5779 25.6575 25.0977 25.4254 25.3449 24.9577C25.4213 24.8163 25.1959 24.7002 25.1232 24.8417L25.1268 24.8489ZM17.8237 26.8903C17.4893 26.865 16.9004 26.9121 16.7586 26.5386C16.7368 26.0672 17.2603 25.7917 17.6529 25.672C18.6598 25.3674 19.7213 25.6212 20.7173 25.8533C19.8776 26.4661 18.8707 26.8613 17.8237 26.8903Z" fill="#5534DA"/>
</g>
<defs>
<clipPath id="clip0_35698_7086">
<rect width="41.0001" height="27.1334" fill="white"/>
</clipPath>
</defs>
</svg>
