<svg width="20" height="21" viewBox="0 0 20 21" fill="none" xmlns="http://www.w3.org/2000/svg">
<path d="M9.37533 10.6927V13.401C9.37533 13.5784 9.43515 13.7269 9.5548 13.8465C9.67446 13.9662 9.82296 14.026 10.0003 14.026C10.1777 14.026 10.3262 13.9662 10.4458 13.8465C10.5655 13.7269 10.6253 13.5784 10.6253 13.401V10.6927H13.3336C13.511 10.6927 13.6595 10.6328 13.7791 10.5132C13.8988 10.3935 13.9586 10.245 13.9586 10.0677C13.9586 9.89034 13.8988 9.74184 13.7791 9.62219C13.6595 9.50254 13.511 9.44271 13.3336 9.44271H10.6253V6.73435C10.6253 6.55701 10.5655 6.40851 10.4458 6.28886C10.3262 6.1692 10.1777 6.10938 10.0003 6.10938C9.82296 6.10938 9.67446 6.1692 9.5548 6.28886C9.43515 6.40851 9.37533 6.55701 9.37533 6.73435V9.44271H6.66697C6.48962 9.44271 6.34112 9.50254 6.22147 9.62219C6.10182 9.74184 6.04199 9.89034 6.04199 10.0677C6.04199 10.245 6.10182 10.3935 6.22147 10.5132C6.34112 10.6328 6.48962 10.6927 6.66697 10.6927H9.37533ZM4.42341 17.151C4.00246 17.151 3.64616 17.0052 3.35449 16.7135C3.06283 16.4218 2.91699 16.0655 2.91699 15.6446V4.49079C2.91699 4.06985 3.06283 3.71354 3.35449 3.42188C3.64616 3.13021 4.00246 2.98438 4.42341 2.98438H15.5772C15.9981 2.98438 16.3545 3.13021 16.6461 3.42188C16.9378 3.71354 17.0836 4.06985 17.0836 4.49079V15.6446C17.0836 16.0655 16.9378 16.4218 16.6461 16.7135C16.3545 17.0052 15.9981 17.151 15.5772 17.151H4.42341ZM4.42341 15.901H15.5772C15.6413 15.901 15.7001 15.8743 15.7535 15.8209C15.8069 15.7675 15.8336 15.7087 15.8336 15.6446V4.49079C15.8336 4.42668 15.8069 4.36791 15.7535 4.31448C15.7001 4.26106 15.6413 4.23435 15.5772 4.23435H4.42341C4.3593 4.23435 4.30053 4.26106 4.2471 4.31448C4.19368 4.36791 4.16697 4.42668 4.16697 4.49079V15.6446C4.16697 15.7087 4.19368 15.7675 4.2471 15.8209C4.30053 15.8743 4.3593 15.901 4.42341 15.901Z" fill="#787486"/>
</svg>
